<?xml version="1.0" encoding="UTF-8" standalone="no"?>
<svg
   xmlns:dc="http://purl.org/dc/elements/1.1/"
   xmlns:cc="http://creativecommons.org/ns#"
   xmlns:rdf="http://www.w3.org/1999/02/22-rdf-syntax-ns#"
   xmlns:svg="http://www.w3.org/2000/svg"
   xmlns="http://www.w3.org/2000/svg"
   version="1.1"
   x="0px"
   y="0px"
   viewBox="0 0 89.971535 89.954521"
   enable-background="new 0 0 32 32"
   xml:space="preserve"
   id="svg8"
   width="89.971535"
   height="89.954521"><metadata
     id="metadata14"><rdf:RDF><cc:Work
         rdf:about=""><dc:format>image/svg+xml</dc:format><dc:type
           rdf:resource="http://purl.org/dc/dcmitype/StillImage" /><dc:title></dc:title></cc:Work></rdf:RDF></metadata><defs
     id="defs12" /><path
     style="color:#000000;font-style:normal;font-variant:normal;font-weight:normal;font-stretch:normal;font-size:medium;line-height:normal;font-family:Sans;-inkscape-font-specification:Sans;text-indent:0;text-align:start;text-decoration:none;text-decoration-line:none;letter-spacing:normal;word-spacing:normal;text-transform:none;writing-mode:lr-tb;direction:ltr;baseline-shift:baseline;text-anchor:start;display:inline;overflow:visible;visibility:visible;opacity:1;fill:#000000;fill-opacity:1;stroke:none;stroke-width:6;marker:none;enable-background:accumulate"
     d="M 70.142017,0 C 65.064199,1.0000001e-7 59.976278,1.9157388 56.110767,5.78125 L 35.673267,26.25 c -7.731021,7.731021 -7.731024,20.300226 0,28.03125 a 3.0003,3.0003 0 1 0 4.21875,-4.21875 c -5.453988,-5.453988 -5.453985,-14.108515 0,-19.5625 l 20.46875,-20.46875 c 5.453985,-5.4539854 14.108516,-5.4539877 19.5625,0 5.453989,5.453985 5.453991,14.108506 0,19.5625 l -12.75,12.75 a 3.0003,3.0003 0 1 0 4.21875,4.25 l 12.78125,-12.75 c 7.731025,-7.731028 7.731027,-20.331479 0,-28.0625 C 80.307756,1.915737 75.219835,-9.9999995e-8 70.142017,0 Z m -18.28125,34.71875 a 3.0003,3.0003 0 0 0 -1.78125,5.15625 c 5.45399,5.453985 5.453988,14.108516 0,19.5625 l -20.46875,20.46875 c -5.453989,5.453991 -14.108515,5.453988 -19.5625,0 -5.453985,-5.453985 -5.4539905,-14.108507 0,-19.5625 l 12.75,-12.75 a 3.0003,3.0003 0 1 0 -4.21875,-4.25 l -12.7812502,12.75 c -7.7310237,7.731027 -7.7310212,20.331479 0,28.0625 7.7310212,7.731026 20.3314752,7.731029 28.0625002,0 l 20.4375,-20.46875 c 7.731026,-7.731022 7.73103,-20.300229 0,-28.03125 a 3.0003,3.0003 0 0 0 -2.125,-0.9375 3.0003,3.0003 0 0 0 -0.3125,0 z"
     id="path2" /></svg>
