<svg xmlns="http://www.w3.org/2000/svg" width="579.851" height="86.893" viewBox="0 0 579.851 86.893">
  <style>
  .color {
    fill: #fff;
  }
  </style>
  <g transform="translate(-152.098 -156.693)">
    <path class="color" d="M530.282,202.751a.774.774,0,0,1,.764.58c.453,2.389,2.068,7.879,6.266,7.879,4.134,0,5.943-1.936,5.943-5.553,0-5.362-6.654-7.17-10.982-7.17a3.152,3.152,0,0,0-.45.02h0l-.012,0H531.8c-6.372.818-10.352,5.935-16.048,13.976l-5.37,7.491c-3.02-5.031-7.492-17.109-8.049-23.6a90.078,90.078,0,0,0,16.438-5.143c7.491-3.355,15.209-7.493,15.209-16.887,0-9.057-7.828-13.644-16.217-13.644-15.656,0-24.937,12.636-24.937,27.511a52.126,52.126,0,0,0,.334,6.15c-9.505,2.573-27.176,9.841-27.176,27.4,0,11.629,7.383,20.576,19.348,20.576,8.386,0,15.322-4.471,20.8-10.513,3.8,5.929,8.273,10.513,15.768,10.513,7.381,0,10.959-3.914,15.434-9.168,0,0-2.435-2.37-2.477-2.325-2.62,2.853-4.643,5.456-9.156,5.456-4.584,0-9.617-3.914-13.195-12.3l7.6-10.513C523.348,209.247,528.154,202.765,530.282,202.751Zm-13.638-37.642c5.7,0,9.394,3.356,9.394,9.059,0,11.3-16.329,18.565-24.382,18.565a33.31,33.31,0,0,1-.891-7.94C500.765,175.734,506.352,165.109,516.644,165.109ZM489.69,236.794c-8.273,0-13.083-7.494-13.083-15.1,0-11.854,5.7-19.684,17-23.149,2.237,10.513,5.368,20.8,10.288,30.307C500.2,233.551,495.844,236.794,489.69,236.794Z" transform="translate(58.965 0.754)"/>
    <path class="color" d="M188.33,161.119c19.793,0,36.232,16.214,36.232,40.816s-16.439,40.819-36.232,40.819S152.1,226.54,152.1,201.935,168.537,161.119,188.33,161.119Zm-11.52,40.816c0,12.191.561,32.433,11.52,32.433s11.52-20.242,11.52-32.433-.561-32.428-11.52-32.428S176.81,189.748,176.81,201.935Z" transform="translate(0 0.831)" opacity="0.99"/>
    <g transform="translate(228.289 156.693)">
      <circle class="color" cx="11.629" cy="11.629" r="11.629" transform="translate(97.998 5.32) rotate(-0.345)"/>
      <path class="color" d="M399.508,233.747V203.215c0-11.742-7.381-16.885-17.22-16.885-6.375,0-11.633,3.243-16.1,7.715l-1.677-7.715-23.15,6.039v6.483c2.573.112,5.259,1.007,5.259,3.131v31.763l-5.25.782-5.25-.782V186.33l-25.61,6.932v6.485c2.573.113,5.257,1.007,5.257,3.131v30.869l-5.255.782-5.251-.782V156.693l-25.61,5.482v6.485c2.573.113,5.255,1.007,5.255,3.131v61.956l-5.254.782-5.253-.782V203.215c0-11.742-7.383-16.885-17.224-16.885-6.375,0-11.63,3.243-16.1,7.715l-1.675-7.715-23.149,6.039v6.483c2.569.112,5.255,1.007,5.255,3.131v31.763l-5.255.783v7.378h29.074V234.53l-3.467-.783V202.208c0-2.682,2.909-4.7,5.482-4.7,5.143,0,6.709,2.683,6.709,7.493v28.741l-3.469.783v7.378H370.433V234.53l-3.467-.783V202.208c0-2.682,2.907-4.7,5.48-4.7,5.146,0,6.711,2.683,6.711,7.493v28.741l-3.469.783v7.378h29.075V234.53Z" transform="translate(-216.24 -156.693)"/>
    </g>
    <path class="color" d="M396.919,214.633c.67,5.925,4.472,11.854,10.959,11.854,5.257,0,8.389-3.244,11.071-7.383l5.48,6.487C419.4,234.2,410,238.786,400.275,238.786c-17,0-25.052-12.861-25.052-26.95,0-18,10.4-30.193,26.056-30.193,14.764,0,22.592,11.965,23.375,25.5Zm-1.341-8.165,4.918-1.341c2.91-.783,4.921-1.79,4.921-6.04,0-3.577-1.007-10.064-5.255-10.064-4.584,0-4.584,7.715-4.584,11.854Z" transform="translate(41.915 4.687)"/>
    <path class="color" d="M461.011,192.154c0,4.584-3.914,6.819-8.053,6.819-4.716,0-9.005-5.238-9.528-10.785a1.094,1.094,0,0,0-1.391-.934,7.959,7.959,0,0,0-5.632,7.472c0,8.5,26.838,2.46,26.838,23.932,0,16.1-13.532,20.127-24.715,20.127-6.938,0-20.464-.925-20.007-11.829a8.283,8.283,0,0,1,8.269-8.077c7.266,0,8.832,6.375,10.06,11.072.584,2.253,3.024,2.2,4.027,2.089,3.685-.391,7.269-2.536,7.269-6.337,0-9.173-26.838-3.693-26.838-24.6,0-15.88,13.532-19.458,24.712-19.458C454.636,181.643,461.011,184.661,461.011,192.154Z" transform="translate(50.048 4.687)"/>
    <g transform="translate(611.864 186.33)">
      <path class="color" d="M589.587,225.367c-4.023,8.722-12.412,13.419-23.259,13.419-17.111,0-27.175-10.622-27.175-27.733,0-15.88,12.19-29.41,29.745-29.41,7.494,0,19.014,3.131,19.014,12.413,0,6.262-3.131,9.615-10.288,9.615-7.27,0-10.067-9.505-10.85-13.64a1.342,1.342,0,0,0-1.341-1.007c-3.244,0-4.808,8.61-4.808,14.089,0,8.835,1.007,24.491,12.861,24.491,4.921,0,7.6-4.136,10.4-7.828Z" transform="translate(-539.153 -181.643)"/>
      <path class="color" d="M638.86,210.27c0,17.333-11.741,28.516-27.846,28.516s-27.846-11.182-27.846-28.629c0-17.332,11.742-28.514,27.846-28.514S638.86,192.825,638.86,210.27Zm-34.22,0c0,11.854,0,21.138,6.374,21.138s6.374-9.284,6.374-21.138c0-8.275,0-21.247-6.374-21.247S604.641,202,604.641,210.27Z" transform="translate(-530.884 -181.643)"/>
      <path class="color" d="M635.507,232.05c-4.138,0-6.932-3.131-6.932-7.27s2.794-7.27,6.932-7.27,6.932,3.131,6.932,7.27S639.646,232.05,635.507,232.05Z" transform="translate(-522.355 -174.905)"/>
    </g>
  </g>
</svg>
