<?xml version="1.0" encoding="UTF-8" standalone="no"?>
<svg
   xmlns:dc="http://purl.org/dc/elements/1.1/"
   xmlns:cc="http://creativecommons.org/ns#"
   xmlns:rdf="http://www.w3.org/1999/02/22-rdf-syntax-ns#"
   xmlns:svg="http://www.w3.org/2000/svg"
   xmlns="http://www.w3.org/2000/svg"
   id="svg4121"
   version="1.1"
   viewBox="0 0 8.2747545 7.002285"
   height="7.002285mm"
   width="8.2747545mm">
  <defs
     id="defs4115" />
  <metadata
     id="metadata4118">
    <rdf:RDF>
      <cc:Work
         rdf:about="">
        <dc:format>image/svg+xml</dc:format>
        <dc:type
           rdf:resource="http://purl.org/dc/dcmitype/StillImage" />
        <dc:title></dc:title>
      </cc:Work>
    </rdf:RDF>
  </metadata>
  <g
     transform="translate(-96.404203,-104.51076)"
     id="layer1">
    <path
       id="path4004"
       style="fill:#eba605;fill-opacity:1;fill-rule:nonzero;stroke:none;stroke-width:0.35277775"
       d="m 100.46792,108.09132 c 0,0.19473 -0.15805,0.35277 -0.35278,0.35277 -0.194732,0 -0.352777,-0.15804 -0.352777,-0.35277 0,-0.19474 0.158045,-0.35278 0.352777,-0.35278 0.19473,0 0.35278,0.15804 0.35278,0.35278" />
    <path
       id="path4006"
       style="fill:#eba605;fill-opacity:1;fill-rule:nonzero;stroke:none;stroke-width:0.35277775"
       d="m 103.29681,104.51076 h -0.60219 -4.316945 -0.74048 c -0.09737,0 -0.176389,0.079 -0.176389,0.17639 v 2.00378 h 0.352778 v -1.82739 h 0.387702 v 1.82739 h 0.352778 v -1.82739 h 3.964166 v 1.651 h 0.35278 v -1.651 h 0.24941 v 1.651 h 0.35278 v -1.82739 c 0,-0.0974 -0.079,-0.17639 -0.17639,-0.17639" />
    <path
       id="path4008"
       style="fill:#eba605;fill-opacity:1;fill-rule:nonzero;stroke:none;stroke-width:0.35277775"
       d="m 104.61299,107.15176 -0.74824,-0.59866 c -0.0314,-0.0251 -0.0702,-0.0388 -0.11042,-0.0388 h -1.35785 c -0.0367,0 -0.0723,0.0116 -0.10195,0.0328 l -0.79869,0.56621 h -2.126542 l -0.735541,-0.56268 c -0.03105,-0.0236 -0.06844,-0.0363 -0.107245,-0.0363 h -1.197328 c -0.04022,0 -0.07902,0.0138 -0.110066,0.0388 l -0.748595,0.59866 c -0.04198,0.0335 -0.06632,0.0843 -0.06632,0.13794 v 3.29283 c 0,0.0974 0.07902,0.17638 0.176389,0.17638 h 2.694164 c 0.09666,0 0.17533,-0.078 0.176389,-0.17462 l 0.03316,-3.1182 h 5.018615 c 0.0748,0 0.14146,-0.0476 0.16616,-0.11818 0.0247,-0.0706 0.002,-0.14923 -0.0561,-0.19615 m -5.512508,3.25438 H 96.75697 v -3.03178 l 0.633941,-0.50729 h 1.075973 l 0.665338,0.50906 z m 3.005318,-3.29283 0.34678,-0.24624 h 1.24001 l 0.30727,0.24624 z" />
    <path
       id="path4010"
       style="fill:#000000;fill-opacity:1;fill-rule:nonzero;stroke:none;stroke-width:0.35277775"
       d="m 100.52824,107.42185 h -0.771874 c -0.06103,0 -0.115711,-0.0392 -0.135467,-0.097 l -0.610658,-1.78505 c -0.01482,-0.0437 -0.0078,-0.0921 0.01905,-0.12982 0.02716,-0.0378 0.07056,-0.06 0.116769,-0.06 h 0.771878 c 0.06138,0 0.116062,0.0388 0.135822,0.097 l 0.6103,1.78505 c 0.0148,0.0438 0.008,0.0921 -0.0191,0.12983 -0.0268,0.0374 -0.0705,0.06 -0.11677,0.06 m -0.669216,-0.28681 h 0.468486 l -0.511877,-1.49825 h -0.468842 z" />
    <path
       id="path4012"
       style="fill:#000000;fill-opacity:1;fill-rule:nonzero;stroke:none;stroke-width:0.35277775"
       d="m 102.00963,106.22226 h -0.8629 c 0,0 -0.85725,0 -0.85725,1.02482 h 1.25166 0.93698 0.55633 c 0,-0.56585 -0.45861,-1.02482 -1.02482,-1.02482" />
    <path
       id="path4014"
       style="fill:#000000;fill-opacity:1;fill-rule:nonzero;stroke:none;stroke-width:0.35277775"
       d="m 102.00956,106.04605 h -0.8629 c -0.01,0 -0.98954,0.0134 -0.98954,1.15746 h 0.26458 c 0,-0.86077 0.65159,-0.89217 0.72496,-0.89288 h 0.13547 c -0.26,0.21238 -0.42968,0.53164 -0.42968,0.89288 h 0.26458 c 0,-0.49247 0.4004,-0.89288 0.89253,-0.89288 0.49248,0 0.89288,0.40041 0.89288,0.89288 h 0.26458 c 0,-0.63817 -0.51929,-1.15746 -1.15746,-1.15746" />
    <path
       id="path4016"
       style="fill:#000000;fill-opacity:1;fill-rule:nonzero;stroke:none;stroke-width:0.35277775"
       d="m 102.00956,106.60245 c -0.33126,0 -0.60078,0.31644 -0.60078,0.70556 h 0.26458 c 0,-0.21767 0.15099,-0.39476 0.3362,-0.39476 0.18556,0 0.33655,0.17709 0.33655,0.39476 h 0.26458 c 0,-0.38912 -0.26987,-0.70556 -0.60113,-0.70556" />
    <path
       id="path4018"
       style="fill:#eba605;fill-opacity:1;fill-rule:nonzero;stroke:none;stroke-width:0.35277775"
       d="m 104.50274,107.11317 h -5.193238 c -0.09666,0 -0.17533,0.078 -0.176388,0.17462 l -0.03457,3.29283 c -7.15e-4,0.0469 0.01764,0.0924 0.0508,0.12594 0.03316,0.0335 0.07832,0.0522 0.125589,0.0522 h 1.271057 c 0.0145,-0.12594 0.0543,-0.24553 0.11924,-0.35277 h -1.212145 l 0.03104,-2.94005 h 4.842225 v 2.94005 h -1.19838 l -0.0674,0.0674 c -0.15276,0.1524 -0.35207,0.23883 -0.56515,0.25329 0.004,0.0102 0.003,0.0215 0.006,0.0321 h 2.00095 c 0.0974,0 0.17639,-0.079 0.17639,-0.17638 v -3.29283 c 0,-0.0974 -0.079,-0.17639 -0.17639,-0.17639" />
    <path
       id="path4020"
       style="fill:#eba605;fill-opacity:1;fill-rule:nonzero;stroke:none;stroke-width:0.35277775"
       d="m 97.500246,110.07611 c -0.194733,0 -0.352778,-0.0593 -0.352778,-0.13229 v -1.00788 c 0,-0.073 0.158045,-0.1323 0.352778,-0.1323 0.194734,0 0.352778,0.0593 0.352778,0.1323 v 1.00788 c 0,0.073 -0.158044,0.13229 -0.352778,0.13229" />
    <path
       id="path4022"
       style="fill:#000000;fill-opacity:1;fill-rule:nonzero;stroke:none;stroke-width:0.35277775"
       d="m 102.06614,110.76922 -0.36865,0.36865 c -0.15275,0.15275 -0.4004,0.15275 -0.5528,0 -0.15276,-0.15275 -0.15276,-0.40005 0,-0.5528 l 0.7373,-0.73731 c 0.15276,-0.15275 0.40005,-0.15275 0.55281,0 0.0508,0.0508 0.13335,0.0508 0.18415,0 0.0512,-0.0511 0.0512,-0.1337 0,-0.1845 -0.25436,-0.25436 -0.66675,-0.25436 -0.92146,0 l -0.73731,0.7373 c -0.25435,0.25471 -0.25435,0.66711 0,0.92146 0.25436,0.2547 0.66711,0.2547 0.92181,0 l 0.36866,-0.3683 c 0.0508,-0.0512 0.0508,-0.1337 0,-0.1845 -0.0512,-0.0508 -0.13371,-0.0508 -0.18451,0" />
    <path
       id="path4024"
       style="fill:#000000;fill-opacity:1;fill-rule:nonzero;stroke:none;stroke-width:0.35277775"
       d="m 103.70656,108.57578 c -0.25435,-0.25435 -0.6671,-0.25435 -0.92181,0 l -0.44203,0.44239 c -0.0508,0.0508 -0.0508,0.13335 0,0.18415 0.0508,0.0511 0.13335,0.0511 0.18415,0 l 0.44238,-0.44203 c 0.15276,-0.15276 0.40041,-0.15276 0.55316,0 0.1524,0.1524 0.1524,0.40005 0,0.5528 l -0.81104,0.81104 c -0.15275,0.15275 -0.4004,0.15275 -0.55315,0 -0.0508,-0.0512 -0.13335,-0.0512 -0.18415,0 -0.0508,0.0508 -0.0508,0.13335 0,0.18415 0.25435,0.2547 0.6671,0.2547 0.92145,0 l 0.81104,-0.81104 c 0.25435,-0.25435 0.25435,-0.6671 0,-0.92146" />
  </g>
</svg>
