<svg xmlns="http://www.w3.org/2000/svg" width="99.489" height="100" viewBox="0 0 99.489 100"><g transform="translate(-0.422 -0.167)"><path d="M99.912,50.167a49.745,49.745,0,1,1-49.744-50A49.873,49.873,0,0,1,99.912,50.167Z" fill="#fff"/><path d="M49.752,17.943a26.2,26.2,0,0,1,5.023,3.685l-.556.558a68.938,68.938,0,0,0-8.374.114c-.295-.3-.889-.745-.336-1.119l4.243-3.238ZM99.09,52.6a8.559,8.559,0,0,1-.336,3.63c-5.1,1.45-8.446-3.947-13.392-3.133l.559,2.8c4.576.15,7.434,4.538,12.162,4.35-.672,1.341.3,4.876-2.676,3.463-3.089-.742-5.322-3.463-8.706-3.463-.408.75-.15,1.788-.221,2.675,3.571.56,6.138,3.578,9.708,4.135-.336,1.227-.669,2.6-1.674,3.348-2.9-.707-5.172-3.315-8.264-3.24l-.55,2.569c2.938.076,4.836,2.675,7.477,3.455.073,1.084-.9,2.052-1.454,3.019-2.344-.7-4.132-2.718-6.81-2.569-.037-1.009.562-2.155.336-3.234-3.008.895-5.025-1.9-7.255-3.577-.064-5.487-5.84-9.086-6.145-14.226a7.634,7.634,0,0,1,.565-3.294c1.9-4.389,1.3-10.088-.78-14.18a8.03,8.03,0,0,0-2.8-2.56c1.528,3.238,3.39,7.065,2.461,11.045-.108,3.074-1.921,6.026-1.942,8.989a6.177,6.177,0,0,0,.826,3.18c2.42,4.359,6.774,8.484,5.137,13.951-.45,1.679-1.791,2.977-2.125,4.686,2.831,2.345,5.508,4.987,9.265,5.136,1.338-.855.595-4.646,3.348-2.9l4.02,2.011a6.446,6.446,0,0,1-2.01,2.782C86.29,80.71,84.8,79.82,82.9,79.892a2.907,2.907,0,0,0-1,2.117,8.966,8.966,0,0,1,3.684,1.568,9.265,9.265,0,0,1-2.461,2.675L80,85.137c-.521.745-1.6,1.528-1.223,2.346a6.508,6.508,0,0,1,2,1.231,20.761,20.761,0,0,1-4.8,3.455c-1.446-4.727-6.211-8.041-5.8-13.507l-.221-.221c-1.12,1.259-.746,3.273-.674,4.907,1.34,3.424,4.538,6.068,5.023,9.823-.56.966-1.822,1.159-2.79,1.568.112-6.769-10.156-11.9-3.571-18.751,2.2-3.353,5.875-6.553,4.572-11.169C71.181,60.362,66.446,57.6,66.488,52.6l.007-.39c1.078-5.21,4.354-10.755,1.674-16.3-.747-2.229-2.415-4.763-4.685-5.695a15.947,15.947,0,0,1,2.789,15.4c-.976,2.073-2.319,4.542-2.454,6.979h-.008a5.832,5.832,0,0,0,1.009,3.738c2.569,4.169,7.031,8.747,4.465,14.18-2.9,4.351-7.962,8.777-5.136,14.508,2.046,3.423,5.211,6.838,4.358,11.046L65.16,97.193c2.232-7.848-8.707-12.46-4.128-20.31,2.827-4.2,7.884-8.148,5.022-13.728-1.711-3.457-5.247-5.5-5.136-9.824l.122-.725c1.152-6.127,5.81-11.927,2.553-18.475a11.635,11.635,0,0,0-4.465-5.022l-.115.115a13.529,13.529,0,0,1,2.905,14.615c-.955,2.858-3.052,5.705-3.478,8.768a7.2,7.2,0,0,0,.8,4.517c2.418,3.829,6.659,7.891,4.012,12.841-2.787,4.089-7.439,8.068-5.581,13.385C59.722,88,64,92.434,61.688,98.2l-3.455.78c2.752-5.622-1.375-11.2-3.792-16.076-2.941-6.995,6.318-10.344,6.467-16.74-.035-4.128-4.423-6.472-5.351-10.266-1.9-1.6-3.868.637-6.138.221-1.676.337-4.251-2.307-5.252.559-1.192,4.2-6.62,7.291-4.234,12.275,2.27,4.429,7.734,7.668,5.909,13.4-1.634,5.354-7.032,10.451-3.684,16.626-1.375-.445-3.943.407-3.906-1.79-2.12-7.478,6.92-11.834,4.128-19.308-1.3-4.578-7.219-7.107-5.916-12.613.964-4.532,6.049-7.7,5.336-12.666a7.327,7.327,0,0,0-.306-1.285c-1.9-5.358-5.771-10.716-3.463-16.969a21.886,21.886,0,0,1,3.012-4.907c-3.684,1.971-5.542,6.139-5.466,10.38-.161,4.611,3.246,8.562,3.73,12.781a7.79,7.79,0,0,1-1.277,5.3c-2.416,3.279-5.577,6.736-4.128,11.054,1.378,4.355,6.809,6.993,6.474,12.055-.037,5.988-6.994,9.716-5.022,16.412L31.891,96.3c-1.375-5.951,4.949-8.995,5.021-14.5.895-6.331-7.18-8.681-6.7-14.853-.035-4.689,4.093-7.659,5.916-11.6a7.555,7.555,0,0,0,.375-2.736c-.223-4.361-4.153-7.771-3.5-12.674A15.52,15.52,0,0,1,36.8,30.446c-3.235,1.3-4.572,5.024-5.465,8.149-1.551,5.012,2.151,9.52,2.522,14.011a7.417,7.417,0,0,1-2.186,5.97c-2.68,3.159-5.4,7.144-3.463,11.389,2.049,4.684,8.487,8.33,5.695,14.172-1.523,3.684-5.171,6.473-5.021,10.824a9.5,9.5,0,0,1-2.791-1.56c0-5.542,7.884-9,4.128-14.845-.333,1.153-.4,2.719-.665,4.021-1.3,3.387-4.093,6.1-5.137,9.6A15.345,15.345,0,0,1,19.393,88.6L21.4,87.37a6.335,6.335,0,0,0-1.337-2.01c-1.306-.184-2.164.673-3.24,1.009A16.736,16.736,0,0,1,14.257,83.8c.668-1.9,5.884-.329,3.241-3.455-1.784-1.115-3.575.478-5.137,1.222l-2.118-2.675c1.823-1.115,3.641-2.681,5.909-2.232.559,1.006.6,2.486,1.674,3.012,3.833-.075,6.548-2.974,9.487-5.244-2.048-3.047-3.715-7.254-1.9-10.939,1.458-3.693,5.255-6.8,5.427-10.885a7.259,7.259,0,0,0-.512-2.959c-2.008-5.172-2.717-12.163,1.116-16.74-2.084.56-3.313,3.157-4.021,5.129-2.3,5.051.61,9.729.711,14.57a10.437,10.437,0,0,1-.268,2.622C25.9,59.206,22.7,62.7,22.183,67.28c-2.27,1.448-4.134,3.981-7.369,3.126a8.572,8.572,0,0,0,.443,3.126c-2.565-.108-4.314,1.783-6.474,2.676-1.151-.369-1.45-1.857-1.9-2.9,2.528-.854,4.352-3.388,7.255-3.348.336-.935-.189-1.791-.337-2.683-3.611-1.6-9.334,7.922-9.815-.336C7.6,66.72,9.9,63.371,13.478,63.037l.107-2.675c-4.055-.41-6.664,3.759-10.717,3.348l-.894-3.57c4.689.293,7.483-3.909,11.948-4.135a6.085,6.085,0,0,0,.779-3.012C9.826,52.359,6.481,57.76,1.308,56.12c0,0-.178-2.248-.275-3.516H1.04c-.035-.5-.069-.841-.069-.841,4.613,1.79,8.666-1.523,12.613-3.234,1-.3,2.569.22,3.019-.895-.039-.856,1.522-1.857.222-2.454-5.77-.783-9.6,6.176-15.518,3.012L.864,47.3c1.231-16.814,10.714-33.071,26.45-41.07A46.223,46.223,0,0,1,49.589.663c9.636-.08,19.374,2.448,26.617,7.575A49.542,49.542,0,0,1,93.62,26.882c3.492,6.324,5.1,13.421,5.58,20.976-6.1,4.611-10.2-4.344-16.412-2.34a7.739,7.739,0,0,0,1.23,2.79c5.508-.039,9.3,5.728,15.067,3.456l.005.84ZM28.986,31.9c-3.87-2.531-8.776-.148-12.383,1.23a12.12,12.12,0,0,0-4.579-8.705,3.05,3.05,0,0,0-1.009-.451.575.575,0,0,0-.558.336c1.3,8-3.9,13.578-7.583,19.645,1.227,1,3.2.853,4.686.558,3.906-1.562,7.626-4.28,12.277-3.348a34.473,34.473,0,0,1,5.581-6.474c1.158-1,2.748-1.638,3.569-2.79Zm11.833,5.023c-.074.482.037,1.34.78,1.008,1.155-1.6,3.2-.334,4.465-.221v-.45a4.007,4.007,0,0,0-3.57-1.582,5.281,5.281,0,0,0-1,.136.868.868,0,0,0-.673,1.109Zm18.193-4.793c-1.039-2.307-3.42-3.241-5.581-3.8a29.014,29.014,0,0,0-3.249-.229c-.2,0-.408,0-.612,0-3.05.062-5.964.844-7.744,3.355-.256.709-1.379,1.7-.336,2.339,2.344-.15,5.019-.444,6.582,1.568,0,1.788,1.154,4.166-.78,5.022-1.6-1.484-3.5.631-5.243-.559-.82-.484-1.338.081-1.674.788A13.109,13.109,0,0,0,46.62,52.879c1.749.631,4.1,1.231,5.925.336,4.39-2.044,6.208-6.729,7.026-11.045-.11-.821-.071-2.422-1.223-2.461-1.3.823-3.2.337-4.579,0-.815.263-.853,1.456-1.781,1.682l-.566-.451c-.484-2.043-.783-4.946,1.116-6.36a10.47,10.47,0,0,1,6.81-.558c.41-.706-.223-1.263-.337-1.9Zm-2.24,3.669c-.147,0-.291.011-.436.016-.78.52-3.052.146-2.231,1.9,1.415-1.119,3.387-.335,4.8.221.523-.26.409-.781.444-1.23C58.895,35.853,57.81,35.774,56.772,35.794Zm16.2-15.73c-2.754-.146-5.06,1.417-7.59,2.124-.22-2.153,1.415-4.427,1.789-6.589-4.091.263-7.332,2.726-10.716,4.693q-1.175-2.839-2.347-5.695l4.465-4.242.114-.559-6.03-.336c-1.039-1.82-1.448-4.012-2.676-5.687-1,1.9-1.68,3.905-2.683,5.8l-6.023.337v.443l4.572,4.128c-.559,2.122-1.078,4.427-2.454,6.031a53.1,53.1,0,0,0-8.256-4.465c-.707-.228-1.714-.6-2.346-.114.929,2.047,2.229,4.248,2.011,6.483C33.57,22.192,32.6,21.4,31.45,21.073c-1.38-.377-3.018-1.112-4.357-.665a24.531,24.531,0,0,1,4.686,10.151A41.443,41.443,0,0,1,56.79,26.546c4.2.669,8.068,2.381,11.826,3.791.147-3.941,2.639-7.109,4.355-10.273ZM85.69,41.5c3.792,1,7.6,5.135,11.611,2.455-3.5-5.8-8.7-11.162-7.255-18.751a.873.873,0,0,0-.665-1.116,9.8,9.8,0,0,0-4.923,5.359,33.229,33.229,0,0,1-1.108,3.905c-2.718-1.414-5.618-2.785-8.929-2.454-1.194.149-2.906.227-3.126,1.453a25.94,25.94,0,0,1,9.15,8.928,17.867,17.867,0,0,1,5.244.22ZM45.956,46.741l.107.673c1.454.969,1.9,2.61,3.914,2.461,1.785.106,3.124-1.566,4.013-2.9-2.415-.333-5.355.183-8.034-.229Zm2.01-3.012c.073.3-.184.744.221.895,1.191-.259,3.347.633,4.012-.78a2.674,2.674,0,0,0-2.017-.756A4.036,4.036,0,0,0,47.966,43.729Z" fill="#007042"/><path d="M45.959,42.438h8.158V45.79H45.959Z" fill="#fff" opacity="0.99"/><path d="M47.466,44.23c1.054.25,1.315.623,2.148.728.886-.016.758-.2,2.3-.729a.269.269,0,0,0,.068-.431c-.959-.952-1.622-.272-2.223-.254-.8.009-1.546-.683-2.325.216-.133.183-.2.362.03.47Z" fill="#007042"/><path d="M86.006,99.221V94.448H84.3v-.972h4.566v.972h-1.7v4.774Z" fill="#007042"/><path d="M89.6,99.221V93.476H91.34l1.042,3.919,1.031-3.919h1.74v5.746H94.076V94.7l-1.14,4.523H91.818L90.682,94.7v4.523Z" fill="#007042"/></g></svg>